# xmcd
#
# Track frame offsets: 
#        150
#        12001
#        25057
#        35335
#        56937
#        72315
#        93167
#        111319
#        129097
#        148900
#        159254
#        174483
#        190084
#        202613
#        215888
#        229467
#
# Disc length: 3243 seconds
#
# Revision: 3
# Processed by: cddbd v1.5.2PL0 Copyright (c) Steve Scherf et al.
# Submitted via: ExactAudioCopyFreeDBPlugin 1.0
#
DISCID=da0ca910
DTITLE=Rex Allen - Voice Of The West
DYEAR=1970
DGENRE=Country
TTITLE0=Moonshine Steer
TTITLE1=Tyin' Knots In The Devil's Tail
TTITLE2=Windy Bill
TTITLE3=Little Joe The Wrangler
TTITLE4=When The Work's All Done This Fall
TTITLE5=Droop Ears
TTITLE6=Streets Of Laredo
TTITLE7=The Fireman Cowboy
TTITLE8=Braggin' Drunk From Wilcox
TTITLE9=Fiddle Medley
TTITLE10=Gone Girl
TTITLE11=Catfish John
TTITLE12=You Never Did Give Up On Me
TTITLE13=Just Call Me Lonesome
TTITLE14=Today I Started Loving You Again
TTITLE15=Reflex Reaction
EXTD=
EXTT0=
EXTT1=
EXTT2=
EXTT3=
EXTT4=
EXTT5=
EXTT6=
EXTT7=
EXTT8=
EXTT9=
EXTT10=
EXTT11=
EXTT12=
EXTT13=
EXTT14=
EXTT15=
PLAYORDER=
